<svg version="1.1" id="Layer_1" xmlns="http://www.w3.org/2000/svg" xmlns:xlink="http://www.w3.org/1999/xlink" x="0px" y="0px"
	 width="100%" viewBox="0 0 496 432" enable-background="new 0 0 496 432" xml:space="preserve">
<path fill="#000000" opacity="1.000000" stroke="none" 
	d="
M313.484985,227.465836 
	C283.085236,272.250031 252.879120,316.729248 222.695633,361.175140 
	C220.349091,359.796631 220.614807,358.474365 220.730209,357.444672 
	C222.204712,344.288605 223.786560,331.144623 225.288971,317.991638 
	C226.453949,307.792633 227.576233,297.588470 228.661575,287.380707 
	C229.781403,276.848419 230.597580,266.276306 232.049713,255.791275 
	C232.526489,252.348785 231.508072,251.078934 228.537247,250.702362 
	C226.563538,250.452179 224.554977,250.395065 222.561844,250.392487 
	C203.566971,250.367935 184.572037,250.385742 165.577179,250.353271 
	C163.456284,250.349655 161.260941,250.675095 157.910355,249.026901 
	C193.297989,192.727570 228.964249,136.954697 264.389252,81.036751 
	C266.801483,82.323593 266.437897,83.829689 266.252594,84.996384 
	C263.139923,104.595627 259.892609,124.173553 256.797974,143.775589 
	C253.932266,161.927551 251.136108,180.091354 248.473129,198.273926 
	C247.657120,203.845535 248.532272,204.647659 254.275604,204.657654 
	C276.269684,204.695892 298.263824,204.669342 320.257935,204.698853 
	C322.395599,204.701721 324.591919,204.323303 327.308502,205.580750 
	C323.979309,213.576523 318.410889,220.120605 313.484985,227.465836 
z"/>
</svg>