<svg version="1.1" id="Layer_1" xmlns="http://www.w3.org/2000/svg" xmlns:xlink="http://www.w3.org/1999/xlink" x="0px" y="0px"
	 width="100%" viewBox="0 0 499 444" enable-background="new 0 0 499 444" xml:space="preserve">
<path fill="#F98C1E" opacity="1.000000" stroke="none" 
	d="
M269.961456,229.010132 
	C280.637268,227.123276 289.993042,223.098953 298.865997,217.713989 
	C300.312500,216.836105 302.953735,216.543076 304.405914,217.263474 
	C330.672943,230.294052 347.936707,250.631546 352.889923,279.943481 
	C354.908295,291.887695 355.657654,304.146881 355.796051,316.276367 
	C355.906616,325.965302 349.359070,331.997925 338.358002,331.998596 
	C287.046722,332.001740 235.735382,332.032745 184.424210,331.955566 
	C178.505356,331.946655 172.545532,331.648804 166.682281,330.887482 
	C161.960358,330.274384 157.044525,324.496521 157.072235,319.681946 
	C157.160477,304.354767 155.681946,288.912842 159.997314,273.843964 
	C167.571732,247.394699 183.655136,228.202087 208.766953,216.792282 
	C209.858475,216.296326 211.873871,216.807724 212.991486,217.551865 
	C226.021133,226.227402 240.622879,229.879730 255.966705,230.731934 
	C260.439911,230.980377 265.001678,229.634094 269.961456,229.010132 
z"/>
<path fill="#F98C1E" opacity="1.000000" stroke="none" 
	d="
M205.975540,176.866211 
	C202.050461,168.419464 199.880905,159.930710 200.022324,150.971420 
	C200.426590,125.362381 217.745972,102.464996 243.728683,97.071457 
	C274.676331,90.647301 303.293182,108.019188 310.626556,138.702347 
	C318.072662,169.857162 298.238708,199.994400 267.441254,206.027115 
	C242.502365,210.912231 219.421967,200.350296 207.586517,179.188019 
	C207.188278,178.475922 206.569412,177.887177 205.975540,176.866211 
z"/>
</svg>