<svg version="1.1" id="Layer_1" xmlns="http://www.w3.org/2000/svg" xmlns:xlink="http://www.w3.org/1999/xlink" x="0px" y="0px"
	 width="100%" viewBox="0 0 496 432" enable-background="new 0 0 496 432" xml:space="preserve">
<path fill="#000000" opacity="1.000000" stroke="none" 
	d="
M199.203400,93.688072 
	C217.391632,91.804214 234.823196,93.393471 251.483719,99.710487 
	C292.517365,115.268814 318.106689,144.696823 325.948303,187.847061 
	C331.079529,216.082886 326.482574,243.471939 311.117340,268.396088 
	C309.419250,271.150543 309.198456,272.785095 312.341919,275.303406 
	C325.527771,285.866974 338.266693,296.987000 351.227692,307.833374 
	C358.208710,313.675415 365.209167,319.502716 372.383636,325.102478 
	C378.617737,329.968292 380.201782,336.985138 376.023956,343.017914 
	C372.362946,348.304474 365.185364,348.996582 358.816132,344.034851 
	C349.528412,336.799500 340.551514,329.164337 331.460999,321.676758 
	C319.951233,312.196503 308.396454,302.768860 297.014343,293.137421 
	C294.679047,291.161285 293.248596,291.377411 291.103546,293.231018 
	C278.397644,304.210663 264.410706,313.033630 248.224792,318.004791 
	C230.006729,323.600067 211.606415,324.885956 192.697372,321.636353 
	C174.100067,318.440338 157.353073,311.502197 142.433441,300.025330 
	C119.612854,282.470642 105.318123,259.506104 99.746803,231.346085 
	C94.596375,205.313477 97.137062,179.789993 109.500687,156.246201 
	C127.394882,122.170662 155.339554,100.919945 193.857346,94.600441 
	C195.490692,94.332466 197.113190,93.998306 199.203400,93.688072 
M174.079529,124.609840 
	C164.499756,129.074310 155.659821,134.755844 148.221771,142.227585 
	C138.404007,152.089813 130.666656,163.445160 125.872047,176.654846 
	C119.023773,195.522537 118.180984,214.582535 124.017105,233.836761 
	C129.785690,252.868164 140.531250,268.482117 156.199524,280.788666 
	C177.818024,297.768738 202.289078,304.146698 229.153458,299.203461 
	C252.791519,294.853821 271.819977,282.311676 286.440826,263.137177 
	C301.427307,243.483231 307.697174,220.961075 304.236450,196.951935 
	C299.297638,162.688431 280.557922,137.578156 248.447662,123.375595 
	C223.812988,112.479523 199.185745,113.127258 174.079529,124.609840 
z"/>
</svg>