<svg version="1.1" id="Layer_1" xmlns="http://www.w3.org/2000/svg" xmlns:xlink="http://www.w3.org/1999/xlink" x="0px" y="0px"
	 width="100%" viewBox="0 0 499 444" enable-background="new 0 0 499 444" xml:space="preserve">
<path fill="#F98C1E" opacity="1.000000" stroke="none" 
	d="
M146.714783,300.195984 
	C141.543991,292.060822 136.061890,284.471130 131.841400,276.234985 
	C125.262543,263.396606 121.579247,249.623688 119.883217,235.178635 
	C116.576904,207.018784 121.640755,180.643661 135.529556,156.032303 
	C147.559784,134.714401 164.455460,118.251648 185.976501,106.446259 
	C198.849380,99.384827 212.498978,94.180290 226.893692,92.382889 
	C238.738083,90.903923 250.918442,91.672073 262.928528,92.077591 
	C277.510071,92.569939 291.255463,97.151772 304.049988,103.695847 
	C342.043213,123.128426 366.227509,153.573883 373.951355,195.888870 
	C380.660095,232.642700 373.354919,266.500336 350.793640,296.766510 
	C331.663361,322.430023 306.304108,338.731964 275.344421,345.595367 
	C256.934937,349.676514 238.160049,349.265594 219.440002,345.333344 
	C200.323700,341.317841 183.292725,333.070435 168.097168,321.273163 
	C160.341034,315.251617 153.967468,307.449188 146.714783,300.195984 
M183.055038,134.465729 
	C180.799652,136.381348 178.459442,138.206390 176.302155,140.226761 
	C157.251907,158.067856 145.191818,179.486588 141.864960,205.718597 
	C139.297180,225.965286 141.786682,245.341599 150.411545,263.766357 
	C162.145966,288.833984 180.829269,306.949097 206.240799,318.049164 
	C226.350525,326.833344 247.298828,329.128174 268.636780,324.561646 
	C292.460785,319.463074 312.701935,307.857880 328.612701,288.987885 
	C337.033905,279.000427 343.721283,268.149841 348.084625,255.837555 
	C354.145325,238.735718 355.927338,221.372192 353.146912,203.297195 
	C350.125946,183.658356 342.072296,166.410095 329.632446,151.353119 
	C317.622894,136.816971 302.505371,126.101936 284.746704,119.335052 
	C266.606903,112.422935 247.787750,111.084633 228.928558,114.269440 
	C212.397064,117.061165 197.134903,123.764099 183.055038,134.465729 
z"/>
<path fill="#FFFFFF" opacity="1.000000" stroke="none" 
	d="
M183.361176,134.266479 
	C197.134903,123.764099 212.397064,117.061165 228.928558,114.269440 
	C247.787750,111.084633 266.606903,112.422935 284.746704,119.335052 
	C302.505371,126.101936 317.622894,136.816971 329.632446,151.353119 
	C342.072296,166.410095 350.125946,183.658356 353.146912,203.297195 
	C355.927338,221.372192 354.145325,238.735718 348.084625,255.837555 
	C343.721283,268.149841 337.033905,279.000427 328.612701,288.987885 
	C312.701935,307.857880 292.460785,319.463074 268.636780,324.561646 
	C247.298828,329.128174 226.350525,326.833344 206.240799,318.049164 
	C180.829269,306.949097 162.145966,288.833984 150.411545,263.766357 
	C141.786682,245.341599 139.297180,225.965286 141.864960,205.718597 
	C145.191818,179.486588 157.251907,158.067856 176.302155,140.226761 
	C178.459442,138.206390 180.799652,136.381348 183.361176,134.266479 
M212.451935,191.036926 
	C212.098190,191.389984 211.690353,191.703400 211.398483,192.101776 
	C198.167953,210.160660 200.031189,239.132675 218.103516,253.833771 
	C230.407455,263.842499 243.894165,267.115967 258.917877,263.462555 
	C277.951630,258.833984 293.139801,241.195023 292.282562,219.353409 
	C291.720428,205.031616 287.109406,193.764069 276.232941,184.662552 
	C264.872742,175.156265 251.759705,173.432785 237.826111,175.691376 
	C227.703583,177.332199 219.673248,182.932632 212.451935,191.036926 
z"/>
<path fill="#F98C1E" opacity="1.000000" stroke="none" 
	d="
M212.712280,190.786499 
	C219.673248,182.932632 227.703583,177.332199 237.826111,175.691376 
	C251.759705,173.432785 264.872742,175.156265 276.232941,184.662552 
	C287.109406,193.764069 291.720428,205.031616 292.282562,219.353409 
	C293.139801,241.195023 277.951630,258.833984 258.917877,263.462555 
	C243.894165,267.115967 230.407455,263.842499 218.103516,253.833771 
	C200.031189,239.132675 198.167953,210.160660 211.398483,192.101776 
	C211.690353,191.703400 212.098190,191.389984 212.712280,190.786499 
z"/>
</svg>