<svg version="1.1" id="Layer_1" xmlns="http://www.w3.org/2000/svg" xmlns:xlink="http://www.w3.org/1999/xlink" x="0px" y="0px"
	 width="100%" viewBox="0 0 499 444" enable-background="new 0 0 499 444" xml:space="preserve">
<path fill="#F98C1E" opacity="1.000000" stroke="none" 
	d="
M180.726135,222.637085 
	C189.511215,206.214859 198.091843,190.108917 207.215225,172.984207 
	C232.528183,219.778885 257.235229,265.453522 282.201660,311.607574 
	C232.311249,311.607574 182.837646,311.607574 132.650940,311.607574 
	C134.883209,307.123016 136.901260,302.773956 139.173248,298.561829 
	C145.062225,287.643982 151.063751,276.786835 157.019043,265.904694 
	C164.853897,251.587952 172.687531,237.270508 180.726135,222.637085 
z"/>
<path fill="#F98C1E" opacity="1.000000" stroke="none" 
	d="
M360.280212,158.327057 
	C347.467133,181.890823 334.851166,205.133789 322.261963,228.391235 
	C317.677246,236.861130 313.176910,245.376740 308.586243,253.843369 
	C307.821716,255.253342 306.790344,256.518646 305.447174,258.489136 
	C280.561462,212.499344 255.983551,167.078354 231.195435,121.268921 
	C280.951477,121.268921 330.278320,121.268921 380.475677,121.268921 
	C373.672363,133.775269 367.080139,145.893631 360.280212,158.327057 
z"/>
</svg>